<svg width="391" height="106" viewBox="0 0 391 106" fill="none" xmlns="http://www.w3.org/2000/svg">
<g clip-path="url(#clip0_21_41)">
<path d="M147.465 11.9316V27.379C147.465 30.9501 149.034 32.7357 152.173 32.7357C155.312 32.7357 156.881 30.9501 156.881 27.379V24.8598H164.098V26.4377C164.098 34.915 160.117 39.1537 152.155 39.1537C144.192 39.1537 140.211 34.915 140.211 26.4377V12.8774C140.211 4.40014 144.192 0.161499 152.155 0.161499C160.117 0.161499 164.098 4.40014 164.098 12.8774V12.9835H156.881V11.9316C156.881 8.36041 155.312 6.57483 152.173 6.57483C149.034 6.57483 147.465 8.36041 147.465 11.9316Z" fill="#939FA6"/>
<path d="M174.457 38.623H167.235V0.692078H174.452V15.8257H184.654V0.692078H191.885V38.6277H184.654V22.2298H174.457V38.623Z" fill="#939FA6"/>
<path d="M216.984 38.623H196.685V0.692078H216.438V7.10079H203.906V15.8211H213.475V22.2298H203.906V32.1959H216.984V38.623Z" fill="#939FA6"/>
<path d="M227.338 11.9316V27.379C227.338 30.9501 228.908 32.7357 232.047 32.7357C235.186 32.7357 236.755 30.9501 236.755 27.379V24.8598H243.972V26.4377C243.972 34.915 239.991 39.1537 232.029 39.1537C224.066 39.1537 220.085 34.915 220.085 26.4377V12.8774C220.085 4.40014 224.066 0.161499 232.029 0.161499C239.991 0.161499 243.972 4.40014 243.972 12.8774V12.9835H236.755V11.9316C236.755 8.36041 235.186 6.57483 232.047 6.57483C228.908 6.57483 227.338 8.36041 227.338 11.9316Z" fill="#939FA6"/>
<path d="M254.96 38.623H247.743V0.692078H254.96V16.3471L264.381 0.692078H272.328L262.599 15.9826L273.426 38.6277H265.318L257.785 22.7097L254.96 27.0191V38.623Z" fill="#939FA6"/>
<path d="M283.991 0.692074L290.321 15.9826L296.44 0.692074H304.13L293.822 23.3002V38.6415H286.605V23.2818L276.302 0.673615L283.991 0.692074Z" fill="#D1304B"/>
<path d="M304.236 26.4331V12.8774C304.236 4.40014 308.217 0.161499 316.179 0.161499C324.141 0.161499 328.122 4.40014 328.122 12.8774V26.4331C328.122 34.9104 324.141 39.149 316.179 39.149C308.217 39.149 304.236 34.9104 304.236 26.4331ZM311.452 11.9316V27.379C311.452 30.9501 313.022 32.7357 316.161 32.7357C319.3 32.7357 320.869 30.9501 320.869 27.379V11.9316C320.869 8.36041 319.3 6.57483 316.161 6.57483C313.022 6.57483 311.452 8.36041 311.452 11.9316Z" fill="#D1304B"/>
<path d="M332.275 0.692078H339.492V27.2221C339.492 30.9132 341.176 32.7588 344.545 32.7588C347.913 32.7588 349.622 30.9132 349.671 27.2221V0.692078H356.888V27.2774C356.888 35.1949 352.773 39.1536 344.545 39.1536C336.316 39.1536 332.218 35.1949 332.252 27.2774L332.275 0.692078Z" fill="#D1304B"/>
<path d="M386.411 38.623H378.671L372.414 23.1757H368.964V38.623H361.725V0.692078H372.185C380.729 0.692078 385.001 4.47395 385.001 12.0377C385.001 17.0484 383.101 20.2781 379.3 21.7269L386.411 38.623ZM368.955 6.67632V17.1868H372.667C376.085 17.1868 377.793 15.4351 377.793 11.9316C377.793 8.42806 376.08 6.67786 372.653 6.68094L368.955 6.67632Z" fill="#D1304B"/>
<path d="M152.995 63.4736V87.609C152.995 93.1918 155.445 95.9832 160.345 95.9832C165.245 95.9832 167.695 93.1918 167.695 87.609V83.6687H178.972V86.1325C178.972 99.3775 172.76 106 160.336 106C147.912 106 141.706 99.3775 141.718 86.1325V64.9547C141.718 51.7097 147.93 45.0872 160.354 45.0872C172.778 45.0872 178.989 51.7097 178.986 64.9547V65.1161H167.709V63.4736C167.709 57.8907 165.259 55.0994 160.359 55.0994C155.459 55.0994 153.004 57.8907 152.995 63.4736Z" fill="#D1304B"/>
<path d="M195.169 105.179H183.892V45.9084H195.174V69.5686H211.114V45.9084H222.387V105.179H211.109V79.5669H195.169V105.179Z" fill="#D1304B"/>
<path d="M236.769 105.179H225.901L240.531 45.9084H254.997L269.237 105.179H258.433L255.571 92.7212H239.953L236.769 105.179ZM247.56 58.712L242.001 82.7043H253.201L247.725 58.712H247.56Z" fill="#D1304B"/>
<path d="M283.031 105.179H272.733V45.9084H285.135L300.919 81.0434V45.9084H311.218V105.179H300.382L283.036 66.9248L283.031 105.179Z" fill="#D1304B"/>
<path d="M327.397 63.4736V87.609C327.397 93.1918 329.847 95.9832 334.746 95.9832C339.646 95.9832 342.096 93.1918 342.096 87.609V83.6687H353.374V86.1325C353.374 99.3775 347.162 106 334.737 106C322.313 106 316.112 99.3775 316.133 86.1325V64.9547C316.133 51.7097 322.345 45.0872 334.769 45.0872C347.194 45.0872 353.406 51.7097 353.406 64.9547V65.1161H342.124V63.4736C342.124 57.8907 339.674 55.0994 334.774 55.0994C329.874 55.0994 327.415 57.8907 327.397 63.4736Z" fill="#D1304B"/>
<path d="M391 105.179H359.304V45.9084H390.201V55.9252H370.577V69.5686H385.534V79.5854H370.577V95.185H391.009L391 105.179Z" fill="#D1304B"/>
<path d="M126.688 104.805V0H22.3388V27.0237H77.917L0 104.805H42.7758L99.7827 46.6697V104.805H126.688Z" fill="#939FA6"/>
</g>
<defs>
<clipPath id="clip0_21_41">
<rect width="391" height="106" fill="white"/>
</clipPath>
</defs>
</svg>
